<svg viewBox="0 0 18 18" fill="currentColor" xmlns="http://www.w3.org/2000/svg">
  <path d="M2.11456 10.4722C2.25717 10.3297 2.45049 10.2497 2.65205 10.2497C2.85361 10.2497 3.04692 10.3297 3.18953 10.4722L8.22972 15.5124L8.22972 0.868441C8.22972 0.666719 8.30985 0.47326 8.45249 0.330621C8.59513 0.187983 8.78859 0.107849 8.99031 0.107849C9.19203 0.107849 9.38549 0.187983 9.52813 0.330621C9.67077 0.47326 9.7509 0.666719 9.7509 0.868441L9.7509 15.5124L14.7911 10.4722C14.8841 10.3721 15.0023 10.2989 15.1334 10.2603C15.2645 10.2218 15.4035 10.2193 15.5359 10.2531C15.6682 10.287 15.789 10.3559 15.8855 10.4526C15.982 10.5494 16.0506 10.6703 16.0841 10.8028C16.118 10.935 16.1156 11.0739 16.0773 11.2049C16.0389 11.3359 15.9659 11.4541 15.8661 11.5471L9.5278 17.8854C9.38518 18.0278 9.19187 18.1078 8.99031 18.1078C8.78875 18.1078 8.59544 18.0278 8.45283 17.8854L2.11456 11.5471C1.97213 11.4045 1.89213 11.2112 1.89213 11.0097C1.89213 10.8081 1.97213 10.6148 2.11456 10.4722Z" />
</svg>
