<svg viewBox="0 0 18 18" fill="currentColor" xmlns="http://www.w3.org/2000/svg">
  <path d="M7.74352 2.11453C7.88595 2.25714 7.96596 2.45046 7.96596 2.65202C7.96596 2.85358 7.88595 3.04689 7.74352 3.1895L2.70333 8.22969L17.3473 8.22969C17.549 8.22969 17.7424 8.30982 17.8851 8.45246C18.0277 8.5951 18.1078 8.78856 18.1078 8.99028C18.1078 9.192 18.0277 9.38546 17.8851 9.5281C17.7424 9.67074 17.549 9.75087 17.3473 9.75087L2.70333 9.75087L7.74352 14.7911C7.84364 14.884 7.91683 15.0023 7.95538 15.1333C7.99393 15.2644 7.99641 15.4035 7.96257 15.5358C7.92873 15.6682 7.85981 15.789 7.76307 15.8855C7.66634 15.982 7.54537 16.0506 7.41292 16.0841C7.2807 16.118 7.14179 16.1156 7.0108 16.0772C6.87982 16.0389 6.76159 15.9659 6.66855 15.866L0.330285 9.52776C0.187851 9.38515 0.107848 9.19184 0.107848 8.99028C0.107848 8.78872 0.187851 8.59541 0.330285 8.4528L6.66855 2.11453C6.81116 1.9721 7.00448 1.8921 7.20603 1.8921C7.40759 1.8921 7.60091 1.9721 7.74352 2.11453Z" />
</svg>
