<svg viewBox="0 0 20 16" fill="currentColor" xmlns="http://www.w3.org/2000/svg">
  <path d="M11.5159 15.5481C11.3577 15.3897 11.2688 15.1749 11.2688 14.9509C11.2688 14.727 11.3577 14.5122 11.5159 14.3537L17.1161 8.75351H0.845102C0.620967 8.75351 0.406012 8.66447 0.247524 8.50599C0.0890372 8.3475 0 8.13255 0 7.90841C0 7.68428 0.0890372 7.46932 0.247524 7.31083C0.406012 7.15235 0.620967 7.06331 0.845102 7.06331H17.1161L11.5159 1.4631C11.4047 1.3598 11.3234 1.22842 11.2805 1.08278C11.2377 0.93714 11.2349 0.782645 11.2725 0.63557C11.3101 0.488496 11.3867 0.354286 11.4942 0.247083C11.6017 0.139879 11.7361 0.06365 11.8833 0.0264271C12.0302 -0.0112269 12.1845 -0.00859999 12.33 0.0340315C12.4756 0.076663 12.607 0.157723 12.7103 0.268689L19.7528 7.31121C19.9111 7.46966 20 7.68446 20 7.90841C20 8.13236 19.9111 8.34716 19.7528 8.50562L12.7103 15.5481C12.5519 15.7064 12.3371 15.7953 12.1131 15.7953C11.8892 15.7953 11.6744 15.7064 11.5159 15.5481Z" />
</svg>
