<svg viewBox="0 0 18 18" fill="currentColor" xmlns="http://www.w3.org/2000/svg">
  <path d="M15.8854 7.74352C15.7428 7.88595 15.5495 7.96596 15.348 7.96596C15.1464 7.96596 14.9531 7.88595 14.8105 7.74352L9.77029 2.70333L9.77029 17.3473C9.77029 17.549 9.69015 17.7424 9.54752 17.8851C9.40488 18.0277 9.21142 18.1078 9.0097 18.1078C8.80798 18.1078 8.61452 18.0277 8.47188 17.8851C8.32924 17.7424 8.24911 17.549 8.24911 17.3473L8.24911 2.70333L3.20892 7.74352C3.11595 7.84364 2.9977 7.91683 2.86663 7.95538C2.73555 7.99393 2.59651 7.99641 2.46414 7.96257C2.33177 7.92873 2.21099 7.85981 2.1145 7.76307C2.01802 7.66634 1.94941 7.54537 1.91591 7.41292C1.88202 7.2807 1.88439 7.14179 1.92276 7.0108C1.96112 6.87982 2.03408 6.76159 2.13395 6.66855L8.47221 0.330285C8.61482 0.187851 8.80814 0.107848 9.0097 0.107848C9.21125 0.107848 9.40457 0.187851 9.54718 0.330285L15.8854 6.66855C16.0279 6.81116 16.1079 7.00448 16.1079 7.20603C16.1079 7.40759 16.0279 7.60091 15.8854 7.74352Z" />
</svg>
