<svg viewBox="0 0 25 25" fill="currentColor" xmlns="http://www.w3.org/2000/svg">
  <path d="M12.3687 0.390625C5.68408 0.390625 0.259277 5.81543 0.259277 12.5C0.259277 19.1846 5.68408 24.6094 12.3687 24.6094C19.0532 24.6094 24.478 19.1846 24.478 12.5C24.478 5.81543 19.0532 0.390625 12.3687 0.390625ZM17.2856 18.208C17.0806 18.208 16.9536 18.1445 16.7632 18.0322C13.7163 16.1963 10.1714 16.1182 6.67041 16.8359C6.47998 16.8848 6.23096 16.9629 6.08936 16.9629C5.61572 16.9629 5.31787 16.5869 5.31787 16.1914C5.31787 15.6885 5.61572 15.4492 5.98193 15.3711C9.98096 14.4873 14.0679 14.5654 17.5542 16.6504C17.8521 16.8408 18.0278 17.0117 18.0278 17.4561C18.0278 17.9004 17.6812 18.208 17.2856 18.208ZM18.5991 15.0049C18.3452 15.0049 18.1743 14.8926 17.9985 14.7998C14.9468 12.9932 10.396 12.2656 6.34814 13.3643C6.11377 13.4277 5.98682 13.4912 5.76709 13.4912C5.24463 13.4912 4.81982 13.0664 4.81982 12.5439C4.81982 12.0215 5.07373 11.6748 5.57666 11.5332C6.93408 11.1523 8.3208 10.8691 10.3521 10.8691C13.521 10.8691 16.5825 11.6553 18.9946 13.0908C19.3901 13.3252 19.5464 13.6279 19.5464 14.0527C19.5415 14.5801 19.1313 15.0049 18.5991 15.0049ZM20.1128 11.2842C19.8589 11.2842 19.7026 11.2207 19.4829 11.0938C16.0063 9.01855 9.79053 8.52051 5.76709 9.64355C5.59131 9.69238 5.37158 9.77051 5.13721 9.77051C4.49268 9.77051 3.99951 9.26758 3.99951 8.61816C3.99951 7.9541 4.40967 7.57813 4.84912 7.45117C6.56787 6.94824 8.4917 6.70898 10.5864 6.70898C14.1509 6.70898 17.8862 7.45117 20.6157 9.04297C20.9966 9.2627 21.2456 9.56543 21.2456 10.1465C21.2456 10.8105 20.7085 11.2842 20.1128 11.2842Z" />
</svg>
