<svg viewBox="0 0 22 25" xmlns="http://www.w3.org/2000/svg">
  <path d="M21.8687 10.2495C19.719 10.2547 17.622 9.58425 15.874 8.33301V17.0596C15.8734 18.6758 15.3794 20.2534 14.458 21.5813C13.5367 22.9092 12.2319 23.9242 10.7181 24.4905C9.20427 25.0568 7.55367 25.1475 5.98695 24.7504C4.42024 24.3533 3.0121 23.4873 1.95082 22.2683C0.889539 21.0493 0.225705 19.5354 0.0480821 17.9289C-0.129541 16.3225 0.187514 14.7 0.956852 13.2786C1.72619 11.8572 2.91114 10.7046 4.35326 9.97479C5.79537 9.24501 7.42592 8.97289 9.02686 9.19482V13.584C8.29427 13.3535 7.50759 13.3605 6.77918 13.6038C6.05076 13.8471 5.41786 14.3144 4.97085 14.9389C4.52384 15.5634 4.28559 16.3131 4.29011 17.0811C4.29463 17.8491 4.5417 18.596 4.99604 19.2152C5.45037 19.8343 6.08873 20.2941 6.81996 20.5288C7.5512 20.7636 8.3379 20.7613 9.06773 20.5222C9.79756 20.2832 10.4332 19.8196 10.8839 19.1978C11.3345 18.5759 11.5772 17.8276 11.5772 17.0596V0H15.874C15.871 0.362861 15.9014 0.725228 15.9648 1.08252C16.1142 1.88012 16.4246 2.63887 16.8772 3.31237C17.3298 3.98587 17.9151 4.55995 18.5972 4.99951C19.5676 5.64116 20.7053 5.98315 21.8687 5.98291V10.2495Z" />
</svg>
