<svg viewBox="0 0 31 31" xmlns="http://www.w3.org/2000/svg">
<path d="M3.64097 29.8456C2.90451 30.5821 1.71047 30.5821 0.974011 29.8456C0.23755 29.1092 0.23755 27.9151 0.974011 27.1786L27.2021 0.95033C27.9385 0.213862 29.1326 0.213864 29.869 0.950332C30.6055 1.6868 30.6055 2.88085 29.869 3.61732L3.64097 29.8456Z" />
<path d="M0.973731 3.61732C0.23727 2.88085 0.237273 1.6868 0.973734 0.950332C1.71019 0.213864 2.90423 0.213864 3.6407 0.950331L29.8688 27.1786C30.6052 27.9151 30.6052 29.1092 29.8688 29.8456C29.1323 30.5821 27.9383 30.5821 27.2018 29.8456L0.973731 3.61732Z" />
</svg>
