<svg viewBox="0 0 22 23" xmlns="http://www.w3.org/2000/svg">
  <path d="M20.9938 6.79407C20.7539 5.89078 20.047 5.17937 19.1496 4.93794C17.5229 4.49924 11 4.49924 11 4.49924C11 4.49924 4.47715 4.49924 2.85041 4.93794C1.95296 5.1794 1.24613 5.89078 1.00623 6.79407C0.570358 8.43135 0.570358 11.8474 0.570358 11.8474C0.570358 11.8474 0.570358 15.2634 1.00623 16.9007C1.24613 17.804 1.95296 18.4858 2.85041 18.7272C4.47715 19.1659 11 19.1659 11 19.1659C11 19.1659 17.5228 19.1659 19.1496 18.7272C20.047 18.4858 20.7539 17.804 20.9938 16.9007C21.4296 15.2634 21.4296 11.8474 21.4296 11.8474C21.4296 11.8474 21.4296 8.43135 20.9938 6.79407ZM8.86665 14.9489V8.74589L14.3185 11.8475L8.86665 14.9489Z"/>
</svg>